<?xml version="1.0" encoding="utf-8"?>
<!-- Svg Vector Icons : http://www.onlinewebfonts.com/icon -->
<!DOCTYPE svg PUBLIC "-//W3C//DTD SVG 1.1//EN" "http://www.w3.org/Graphics/SVG/1.1/DTD/svg11.dtd">
<svg version="1.1" xmlns="http://www.w3.org/2000/svg" xmlns:xlink="http://www.w3.org/1999/xlink" x="0px" y="0px" viewBox="0 0 1000 1000" enable-background="new 0 0 1000 1000" xml:space="preserve">
<metadata> Svg Vector Icons : http://www.onlinewebfonts.com/icon </metadata>
<g><g transform="translate(0.000000,511.000000) scale(0.100000,-0.100000)"><path d="M6437.8,3116.7c-71.7-38.8-137.6-141.5-137.6-213.2c0-93.1,65.9-176.4,397.4-507.9l337.3-337.3l-1341.4-538.9L4352.1,982.5l-705.6-1.9H2939l-302.4,298.5c-246.2,244.2-315.9,302.4-372.2,312.1c-102.7,19.4-2010.1-612.5-2091.5-692c-98.9-98.8-96.9-244.2,3.9-345c110.5-108.5,106.6-108.5,1073.9,213.2l885.8,294.6l275.2-271.4c149.3-149.3,298.5-281.1,327.6-292.7c34.9-13.6,339.2-21.3,868.4-21.3h812.2l1554.6,622.2c1723.2,688.1,1601.1,651.3,1806.6,548.6c131.8-65.9,248.1-182.2,314-314c50.4-102.7,54.3-131.8,65.9-401.2c11.6-323.7,27.1-368.3,145.4-424.5c83.3-40.7,141.5-38.8,221,3.9c110.5,60.1,137.6,135.7,137.6,383.8c0,447.8-96.9,709.4-356.7,969.2c-178.3,178.3-370.2,284.9-577.6,321.8l-122.1,21.3L7153,2659.2c-250.1,248.1-480.7,461.3-509.8,471C6565.7,3161.3,6513.3,3157.4,6437.8,3116.7z"/><path d="M7368.2,635.6c-75.6-40.7-137.6-141.5-137.6-221c0-31,207.4-467.1,492.4-1039c523.4-1044.8,523.4-1046.7,668.7-1064.2c133.7-15.5,273.3,112.4,273.3,250.1c0,31-207.4,467.1-492.4,1039C7802.4,340.9,7666.7,594.9,7626,622C7546.5,672.4,7445.7,678.2,7368.2,635.6z"/><path d="M1328.2,21.1c-314-60.1-560.2-190-787-414.8C122.5-812.4-7.3-1411.4,200.1-1963.8c242.3-643.5,909.1-1046.7,1575.9-953.7c347,48.5,622.2,188,874.2,441.9l160.9,160.9h1585.6c1490.6,0,1587.5,1.9,1651.5,34.9c62,31,100.8,100.8,412.9,717.2C6658.7-1169,6804.1-857,6804.1-826c0,137.6-139.6,265.6-273.3,250.1c-137.6-17.5-157-44.6-465.2-655.2l-288.8-579.6H4408.3H3037.9l13.6,79.5c46.5,294.6,27.1,542.8-65.9,794.7C2737.4-256.1,2028,152.9,1328.2,21.1z M1828.3-482.9c442-114.3,750.2-509.8,750.2-959.5c0-637.7-616.4-1118.4-1230.9-959.5C607.1-2208,351.3-1283.4,890.1-742.6C1130.5-502.3,1504.6-397.6,1828.3-482.9z"/><path d="M1463.9-1159.3c-195.8-85.3-242.3-345-89.2-498.2c126-126,304.3-126,430.3,0C2045.4-1417.2,1776-1023.7,1463.9-1159.3z"/><path d="M8769.6-83.6c-87.2-54.3-124.1-114.4-124.1-205.5c0-120.2,56.2-193.8,207.4-265.6c327.6-158.9,548.6-517.5,548.6-887.8c0-635.8-618.3-1118.4-1227-959.5c-566,147.3-870.3,697.8-701.7,1271.6c44.6,149.2,46.5,174.5,25.2,242.3c-52.3,157-263.6,217.1-383.8,110.5c-77.5-69.8-147.3-263.6-178.3-490.4c-40.7-314,29.1-649.4,199.6-936.2c96.9-166.7,348.9-422.6,509.8-515.6c273.3-162.8,624.1-236.5,932.4-199.6c350.8,44.6,635.8,182.2,882,430.3c248.1,246.2,385.8,531.1,430.3,882c69.8,577.6-230.7,1165-748.2,1461.5C8963.5-44.8,8858.8-27.4,8769.6-83.6z"/><path d="M3646.5-605c-73.7-38.8-137.6-141.5-137.6-217.1c0-75.6,64-178.3,137.6-217.1c60.1-32.9,127.9-34.9,889.7-34.9c920.7,0,918.8,0,992.4,137.6c44.6,83.3,44.6,145.4,0,228.7c-73.7,137.6-71.7,137.6-992.4,137.6C3774.4-570.1,3706.6-572,3646.5-605z"/></g></g>
</svg>