<svg width="19" height="11" viewBox="0 0 19 11" fill="none" xmlns="http://www.w3.org/2000/svg">
    <path
        d="M9.34217 0.677734C3.96717 0.677734 0.326172 4.26073 0.326172 5.45073C0.326172 6.40573 3.81817 10.2247 9.34217 10.2247C14.7682 10.2247 18.3602 6.82873 18.3602 5.45073C18.3592 4.22573 14.8182 0.677734 9.34217 0.677734ZM9.34217 1.89373C10.9552 1.89373 12.2662 3.13673 12.2662 4.66273C12.2662 6.18873 10.9552 7.43273 9.34217 7.43273C7.73117 7.43273 6.42017 6.18873 6.42017 4.66273C6.42017 3.13673 7.73017 1.89373 9.34217 1.89373ZM9.34217 9.16473C4.64517 9.16473 1.73117 6.12573 1.40417 5.44373C1.63617 4.92473 3.37117 3.02573 6.32617 2.16673C5.72417 2.83973 5.35917 3.70973 5.35917 4.66273C5.35917 6.77273 7.14617 8.49373 9.34117 8.49373C11.5382 8.49373 13.3272 6.77273 13.3272 4.66273C13.3272 3.69273 12.9462 2.80973 12.3272 2.13573C15.5302 3.00873 17.2352 5.06173 17.3002 5.44373C17.2272 6.07173 14.3422 9.16473 9.34217 9.16473Z"
        fill="#929394" />
</svg>
